<svg xmlns="http://www.w3.org/2000/svg" width="512" height="512" viewBox="0 0 512 512"><path fill="#EE7E00" d="M512 472c0 22.1-17.9 40-40 40H40c-22.1 0-40-17.9-40-40V40C0 17.9 17.9 0 40 0h432c22.1 0 40 17.9 40 40v432z"/><path fill="#FFF" d="M187.3 368.3c218.9-96 285.4-97.5 285.4-97.5-7.8-19.7-29.6-24.4-29.6-24.4l-31.1-1.6c28.5-38.9-10.9-47.7-10.9-47.7l-275.5-.5-4.3 3.2 275.1 4.6c36.8 10.4 2.1 47.7 2.1 47.7 10.9-2.1 42.5 1 42.5 1-2.6 2.6-3.1 8.3 2.1 8.3s4.7-6.7 4.7-6.7c10.4 3.1 11.4 10.9 11.4 10.9-60.2 3.6-235 79.4-235 79.4 37.9-37.4 128.1-85.1 128.1-85.1l15-1-6.2-5.7-314.7 2.6-7 5.2 297.8-1c-97.5 49.2-149.9 108.3-149.9 108.3z"/><path fill="#FFF" d="M306.1 209.6l9.3 8.3-215.3-2.6 3.1-3.1zM322.7 224.6l9.3 6.2-249.5-1.5 2.5-2.1zM340.3 238.1l9.3 6.2-287.4.5 5.7-3.6zM296.2 150.7v43.9h8.3v-43.1c6.5 6.5 31.2 31.5 36.8 42.6l7.8-.5s-23.1-35-34.2-43.1l-8.8-5.7-1.6 2.6V146l-8.3 1.3v.1l-1.6-1.1-7.8 3.1s-28 28.5-35.8 44.1h9.3c.1 0 19.7-31.4 35.9-42.8zM237.6 263c-.5 22.3 9.9 46.7 9.9 46.7h-39.9l4.2 7.8h29.6c7.3-5.7 13.5-9.9 13.5-9.9-7.8-8.3-9.9-44.6-9.9-44.6h-7.4zM392.2 309.7h-38.9l1.6-5.7-7.8 2.1-1 3.1h-8.8l-14.5 7.3 18.7.5s-19.8 34.1-37.4 43.2v-37l-6.8 2.1v34.2l.2.7c-10.9-5.2-26.1-23.5-26.1-23.5l-5.7 2.6c4.2 9.8 22.3 22.3 22.3 22.3l9.6 4.4.7-2.7 1.1 4.5 4-3.5 1.7 2.5 9.9-1.6 1.6-5.2s27.5-24.9 34.2-43.6H388l6.7-5.7-2.5-1zM304.5 274.9V263h-7.8v16.6z"/><path fill="#FFF" d="M213.9 193.3c19.4-26.6 50.8-43.9 86.2-43.9 35.3 0 66.6 17.2 86 43.6h10.1c-20.5-31.2-55.9-51.9-96.1-51.9-40.3 0-75.8 20.8-96.3 52.3l10.1-.1zM185.4 262.7c1.6 28 13.3 53.3 31.4 72.3 1.5-1.2 3.7-2.9 6.6-5.1-17-17.7-28-41.2-29.6-67.3l-8.4.1zM400.8 291.1c-14.5 41.6-54.1 71.5-100.7 71.5-20.5 0-39.7-5.8-56-15.9-3.1 1.2-6.2 2.5-9.4 3.8 18.6 12.9 41.1 20.4 65.3 20.4 52.2 0 96.2-34.8 110.2-82.5-2.9.9-6.1 1.7-9.4 2.7z"/></svg>