<svg xmlns="http://www.w3.org/2000/svg" width="512" height="512" viewBox="0 0 512 512"><path fill="#2B3058" d="M512 472c0 22.1-17.9 40-40 40H40c-22.1 0-40-17.9-40-40V40C0 17.9 17.9 0 40 0h432c22.1 0 40 17.9 40 40v432z"/><path fill-rule="evenodd" clip-rule="evenodd" fill="#FFF" d="M72.1 206H179c-2 9.1-3.3 19-5.5 28H146c-5.2 23.2-8.9 47.9-13.3 72H85c5.5-32.6 7.8-44.4 12.8-72H67.1c2.3-14.2 2.3-14.7 5-28zM225.3 233.1h9.2c-3.5 24.8-7.7 48.9-11.9 72.9h-47.2c3.2-23.2 7.5-49.3 11.9-72.9h11.9c-4.9-3.1-11.6-4.7-12.4-11-2.2-18.1 45.6-21 50.9-3.7 2.1 7-5.5 12.6-12.4 14.7zM294.5 246.4c2.5-12.9 4.8-26.1 6.9-39.4h-47.7c-5.6 33.1-11.8 65.6-17 99.1h47.2c4-23.4 3.8-21.6 6.4-36.7l4.2-23zM432.6 233.1h9.2c-3.6 24.6-7.8 48.7-11.9 72.9h-47.7c4-24.3 8-48.5 11.9-72.9h12.4c-6.4-3.3-13.7-6-12.4-14.2 2.7-16.9 50.2-15.9 50.9 1.4.2 7.5-6.7 10.2-12.4 12.8z"/><path fill-rule="evenodd" clip-rule="evenodd" fill="#DA251C" d="M284.4 258.3c5.5-6 6.1-6.5 11-11.9 14.4-13.9 21.7-22.7 36.7-38.1h55c-4.5 4.4-4 4-5.5 5.5-13.9 13.9-27.8 28.7-41.3 42.2 9.6 17.1 20.5 33 30.3 50h-57.3l-28.9-47.7z"/></svg>